<?xml version="1.0" encoding="utf-8"?>
<!-- Generator: Adobe Illustrator 16.0.0, SVG Export Plug-In . SVG Version: 6.00 Build 0)  -->
<!DOCTYPE svg PUBLIC "-//W3C//DTD SVG 1.1//EN" "http://www.w3.org/Graphics/SVG/1.1/DTD/svg11.dtd">
<svg version="1.1" id="Layer_1" xmlns="http://www.w3.org/2000/svg" xmlns:xlink="http://www.w3.org/1999/xlink" x="0px" y="0px"
	 width="162px" height="34px" viewBox="0 0 162 34" enable-background="new 0 0 162 34" xml:space="preserve">
<g>
	<g>
		<polygon fill="#FFFFFF" points="106.006,27.587 106.006,10.453 102.771,10.458 102.771,14.115 102.766,14.115 102.766,27.587 		
			"/>
		<path fill="#FFFFFF" d="M135.42,10.341h-3.643l-5.313,8.045V6.352c-0.004,0-0.01-0.002-0.014-0.004h-3.279
			c-0.006,0.002-0.012,0.004-0.014,0.004v21.105c0.055,0.011,0.113,0.021,0.172,0.028h2.959c0.061-0.008,0.119-0.018,0.176-0.028
			v-8.718l6.229,8.718c0.086,0.016,0.166,0.02,0.248,0.028h3.189c0.08-0.009,0.154-0.013,0.238-0.028l-6.385-9.119L135.42,10.341z"
			/>
		<path fill="#FFFFFF" d="M145.77,25.122c-1.801,0-3.168-0.437-4.096-1.305c-0.924-0.867-1.408-2.243-1.449-4.108h11.662
			c0.023-0.247,0.043-0.542,0.068-0.888c0.021-0.345,0.029-0.673,0.029-0.987c0-1.135-0.156-2.187-0.469-3.153
			c-0.309-0.97-0.766-1.806-1.369-2.508c-0.6-0.701-1.346-1.251-2.238-1.653c-0.889-0.402-1.926-0.604-3.107-0.604
			c-1.381,0-2.576,0.239-3.594,0.719c-1.01,0.482-1.855,1.127-2.52,1.939c-0.674,0.813-1.166,1.771-1.488,2.873
			s-0.484,2.289-0.484,3.559c0,1.293,0.168,2.478,0.502,3.559c0.334,1.08,0.863,2.016,1.586,2.806
			c0.725,0.79,1.643,1.403,2.76,1.841c1.109,0.435,2.449,0.649,4.01,0.649c1.066,0,2.041-0.078,2.92-0.233
			c0.881-0.159,1.689-0.392,2.426-0.703l-0.635-2.64C148.859,24.841,147.354,25.122,145.77,25.122z M141.578,13.795
			c0.723-0.825,1.762-1.238,3.119-1.238c0.693,0,1.289,0.131,1.791,0.386s0.914,0.597,1.238,1.018
			c0.324,0.427,0.566,0.921,0.732,1.487c0.17,0.569,0.254,1.164,0.254,1.787h-8.455C140.416,15.765,140.855,14.617,141.578,13.795z"
			/>
		<path fill="#FFFFFF" d="M120.922,27.102l-0.621-2.576c-0.004-0.013-0.012-0.025-0.02-0.039c-0.58,0.225-1.152,0.378-1.719,0.467
			c-0.568,0.089-1.189,0.136-1.855,0.136c-1.672,0-2.986-0.496-3.943-1.489c-0.957-0.992-1.436-2.555-1.436-4.692
			c0-1.873,0.424-3.377,1.27-4.513c0.844-1.138,2.123-1.703,3.842-1.703c1.402,0,2.652,0.188,3.744,0.565
			c0.178-0.378,0.316-0.817,0.416-1.317c0.1-0.503,0.152-0.941,0.152-1.321c-0.646-0.245-1.326-0.421-2.041-0.533
			c-0.713-0.112-1.535-0.169-2.471-0.169c-1.385,0-2.598,0.235-3.643,0.702c-1.047,0.471-1.922,1.104-2.623,1.905
			c-0.707,0.802-1.23,1.748-1.59,2.839c-0.355,1.092-0.533,2.273-0.533,3.545c0,2.737,0.725,4.915,2.172,6.529
			c1.449,1.618,3.598,2.424,6.449,2.424c1.67,0,3.152-0.251,4.453-0.748L120.922,27.102z"/>
		<path fill="#FFFFFF" d="M161.514,24.978c-0.004-0.007-0.004-0.016-0.006-0.023c-0.268,0.068-0.57,0.132-0.904,0.186
			c-0.33,0.059-0.686,0.084-1.066,0.084c-0.492,0-0.896-0.05-1.223-0.15c-0.32-0.099-0.578-0.302-0.77-0.602
			c-0.188-0.299-0.322-0.729-0.4-1.284c-0.078-0.559-0.115-1.305-0.115-2.239V13.13h4.328v-2.64h-4.328V6.246
			c-4.01-0.4-3.324,5.531-3.324,5.531l0.018,0.708l0.029,0.645v9.72c0,1.805,0.453,3.098,1.357,3.879
			c0.9,0.778,2.156,1.169,3.762,1.169c0.549,0,1.076-0.029,1.57-0.085c0.477-0.054,0.934-0.137,1.371-0.241L161.514,24.978z"/>
		<path fill="#FFFFFF" d="M98.299,25.072l-0.07-0.153c-0.258,0.062-0.543,0.12-0.863,0.175c-0.334,0.054-0.693,0.084-1.066,0.084
			c-0.49,0-0.898-0.054-1.221-0.149c-0.322-0.104-0.58-0.301-0.77-0.604c-0.191-0.301-0.326-0.727-0.398-1.283
			c-0.08-0.558-0.117-1.304-0.117-2.24v-7.818h4.322v-2.639h-4.322V6.197c-4.014-0.398-3.326,5.535-3.326,5.535l0.018,0.702
			l0.029,0.647v9.722c0,1.806,0.449,3.1,1.355,3.875c0.902,0.781,2.156,1.171,3.758,1.171c0.561,0,1.082-0.028,1.574-0.083
			c0.482-0.056,0.941-0.137,1.379-0.248L98.299,25.072z"/>
		<g>
			<path fill="#FFFFFF" d="M66.006,23.954c-0.557,0.155-1.25,0.236-2.068,0.236c-0.605,0-1.131-0.074-1.576-0.217
				c-0.443-0.146-0.82-0.393-1.117-0.735c-0.301-0.348-0.525-0.814-0.668-1.403c-0.145-0.59-0.217-1.344-0.217-2.255v-9.137h-4.746
				v9.271c0,1.846,0.232,3.328,0.705,4.442c0.463,1.113,1.094,1.96,1.885,2.538c0.793,0.579,1.709,0.957,2.758,1.135
				c1.045,0.181,2.137,0.271,3.273,0.271c1.27,0,2.492-0.117,3.658-0.354c1.166-0.232,2.109-0.474,2.822-0.72V10.443h-4.709V23.954z
				"/>
			<path fill="#FFFFFF" d="M42.867,12.178c-0.623-0.723-1.365-1.267-2.221-1.622c-0.861-0.354-1.787-0.534-2.791-0.534
				c-1,0-1.893,0.197-2.672,0.585c-0.781,0.392-1.338,0.887-1.67,1.488V3.273c-0.182-0.03-0.361-0.054-0.541-0.077h-3.635
				C29.16,3.22,28.98,3.243,28.801,3.273v23.857c0.42,0.156,0.889,0.293,1.402,0.415s1.047,0.226,1.605,0.304
				c0.555,0.074,1.109,0.138,1.654,0.186c0.545,0.041,1.064,0.066,1.551,0.066c1.541,0,2.918-0.219,4.143-0.654
				c1.227-0.437,2.266-1.051,3.111-1.855c0.846-0.798,1.49-1.774,1.936-2.924c0.447-1.145,0.672-2.442,0.672-3.89
				c0-1.494-0.18-2.785-0.539-3.876C43.979,13.811,43.492,12.904,42.867,12.178z M38.689,22.888c-0.82,0.848-1.957,1.27-3.406,1.27
				c-0.311,0-0.617-0.01-0.92-0.034c-0.303-0.02-0.582-0.077-0.85-0.169v-6.28c0-1.27,0.281-2.197,0.85-2.79
				C34.934,14.295,35.658,14,36.555,14c1.225,0,2.092,0.417,2.602,1.252c0.516,0.837,0.771,2.056,0.771,3.658
				C39.928,20.715,39.518,22.041,38.689,22.888z"/>
			<path fill="#FFFFFF" d="M87.604,15.019c-0.336-1.014-0.83-1.886-1.486-2.622s-1.455-1.314-2.393-1.737
				c-0.936-0.426-2.004-0.638-3.203-0.638c-1.383,0-2.592,0.24-3.627,0.722c-1.035,0.479-1.906,1.131-2.607,1.955
				c-0.701,0.823-1.23,1.791-1.588,2.907c-0.355,1.111-0.537,2.302-0.537,3.574c0,1.29,0.178,2.482,0.525,3.575
				c0.344,1.089,0.879,2.03,1.6,2.82c0.723,0.79,1.662,1.411,2.809,1.857c1.145,0.443,2.521,0.669,4.125,0.669
				c2.184,0,4.143-0.335,5.883-1.005v-0.006c-0.023,0.006-0.039,0.014-0.039,0.014l-0.254-0.935l-0.639-2.66l-0.014-0.018
				c-0.707,0.262-1.461,0.471-2.246,0.614c-0.791,0.147-1.566,0.217-2.322,0.217c-1.381,0-2.496-0.3-3.342-0.902
				c-0.848-0.601-1.314-1.57-1.404-2.906h11.09c0.045-0.242,0.088-0.574,0.119-0.985c0.037-0.413,0.053-0.831,0.053-1.253
				C88.105,17.117,87.934,16.029,87.604,15.019z M76.877,17.207c0.109-1.138,0.457-2.016,1.033-2.641
				c0.58-0.625,1.428-0.934,2.545-0.934c0.977,0,1.744,0.327,2.291,0.984c0.543,0.656,0.834,1.523,0.877,2.59H76.877z"/>
			<path fill="#FFFFFF" d="M54.543,23.992l-0.01-0.038c-0.199,0.048-0.4,0.081-0.609,0.099c-0.211,0.024-0.406,0.037-0.582,0.037
				c-0.404,0-0.736-0.044-1.006-0.136c-0.264-0.086-0.484-0.249-0.648-0.482c-0.172-0.233-0.291-0.563-0.371-0.986
				c-0.074-0.421-0.115-0.979-0.115-1.669V3.273c-0.027-0.008-0.053-0.008-0.08-0.011h-4.555c-0.025,0.003-0.053,0.003-0.076,0.011
				v18.577c0,2.137,0.518,3.68,1.555,4.629c1.033,0.944,2.41,1.418,4.125,1.418c0.422,0,0.887-0.021,1.387-0.067
				c0.502-0.043,0.93-0.121,1.287-0.233c0.008-0.025,0.01-0.051,0.016-0.071l-0.094-0.827L54.543,23.992z"/>
		</g>
	</g>
	<g>
		<path fill="#FFFFFF" d="M17.443,7.14c0.254,0.932,0.449,1.69,0.576,2.259c0.023,0.109,0.109,0.97,0.092,1.271v0.028
			c-0.012,1.274-1.262,3.012-3.533,4.921c0.676-0.083,1.354-0.123,2.027-0.123c2.621,0,4.605,0.624,5.559,0.925
			c0.047,0.016,0.092,0.027,0.131,0.04c1.096-1.368,1.805-2.742,2.113-4.09c0.02-1.917-0.914-3.346-2.773-4.244
			C20.182,7.424,18.482,7.205,17.443,7.14z"/>
		<path fill="#FFFFFF" d="M24.535,13.447c-0.41,1.13-1.078,2.267-1.998,3.396c-4.52,5.552-13.561,9.282-19.17,9.282
			c-0.396,0-0.781-0.02-1.143-0.055c2.027,4.722,3.389,6.786,3.623,7.131c0.209,0.07,0.988,0.298,2.326,0.298
			c1.512,0,4.041-0.298,7.496-1.723c3.055-1.262,5.479-2.956,7.197-5.035c1.48-1.792,1.992-3.34,2.143-3.926
			c0.043-0.159,0.184-0.751,0.189-0.848C25.197,19.118,24.76,15.241,24.535,13.447z"/>
		<path fill="#FFFFFF" d="M17.684,10.645c0.016-0.254-0.066-1.073-0.082-1.154c-0.139-0.617-0.357-1.466-0.65-2.522
			c-0.414-1.483-0.881-3.029-1.125-3.839c-0.172,0.37-0.385,0.746-0.645,1.142c-0.072,0.109-0.148,0.227-0.234,0.345
			c-0.045,0.064-0.094,0.128-0.143,0.193c-0.098,0.129-0.201,0.26-0.311,0.392c-0.021,0.025-0.041,0.051-0.063,0.077
			c-0.029,0.037-0.059,0.075-0.09,0.11c-0.031,0.037-0.064,0.073-0.098,0.109c-0.025,0.025-0.047,0.05-0.07,0.076
			c-1.414,1.589-3.504,3.154-5.9,4.418c-0.02,0.047-1.59,0.838-1.59,0.838c-0.092,0.04-2.035,0.867-2.818,1.07
			c-0.154,0.04-0.363,0.104-0.605,0.177c-0.852,0.258-2.016,0.611-2.736,0.611c-0.059,0-0.115-0.002-0.166-0.008
			c0.953,2.545,2.195,4.854,3.078,6.215c0.131,0.091,0.783,0.155,1.027,0.155c0.16,0,1.451-0.039,2.197-0.195
			c0.176-0.039,0.322-0.068,0.453-0.096c0.527-0.104,0.793-0.159,1.734-0.522c1.072-0.411,2.068-0.863,2.971-1.341
			c0.418-0.222,1.381-0.782,1.879-1.125c0.078-0.054,0.148-0.104,0.195-0.143c2.398-1.933,3.779-3.731,3.791-4.935
			C17.684,10.673,17.684,10.657,17.684,10.645z"/>
		<path fill="#FFFFFF" d="M0.523,12.258c0.656,0,1.832-0.356,2.611-0.591c0.248-0.075,0.463-0.14,0.621-0.182
			c0.754-0.195,2.73-1.038,2.75-1.045l0.484-0.237l-0.174,0.012c-0.443,0.029-1.051,0.151-1.291,0.204
			c-0.088,0.017-0.141,0.028-0.141,0.028c-0.016,0.006-0.031,0.007-0.047,0.007c-0.012,0-0.023-0.001-0.037-0.002
			c-0.01,0.001-0.021,0.002-0.033,0.002c-0.074,0-0.146-0.038-0.186-0.106L4.555,9.441c-2.406,1.02-4.318,2.176-4.365,2.646
			c-0.004,0.039-0.002,0.085,0.004,0.109C0.227,12.224,0.322,12.258,0.523,12.258z"/>
		<path fill="#FFFFFF" d="M5.449,9.996C5.686,9.945,6.316,9.82,6.787,9.787l0.572-0.038C7.598,9.724,7.777,9.707,7.904,9.7
			c2.424-1.256,4.535-2.822,5.947-4.411l0.02-0.021c0.047-0.057,0.094-0.11,0.141-0.164c0.055-0.061,0.105-0.119,0.154-0.179
			c0.102-0.123,0.203-0.249,0.299-0.375c0.045-0.061,0.09-0.124,0.135-0.183c0.07-0.099,0.137-0.198,0.199-0.294l0.025-0.04
			c0.455-0.707,0.686-1.29,0.756-1.487C14.809,0.768,11.756,0.5,9.986,0.5c-1.162,0-2.154,0.107-2.785,0.198
			C3.842,1.181,1.805,2.126,1.213,2.432l3.609,6.619l0.557,0.956L5.449,9.996z"/>
	</g>
</g>
</svg>
